# xmcd
#
# Track frame offsets: 
#        150
#        10235
#        19770
#        31407
#        39473
#        48961
#        63592
#        86867
#        94547
#        107793
#        119842
#        133476
#        145501
#
# Disc length: 2090 seconds
#
# Revision: 0
# Processed by: cddbd v1.5.2PL0 Copyright (c) Steve Scherf et al.
# Submitted via: ExactAudioCopy v1.3
#
DISCID=b408280d
DTITLE=Erik Darling - Train Time
DYEAR=1963
DGENRE=Country
TTITLE0=Hail John
TTITLE1=Charlie Green
TTITLE2=You Don't Know
TTITLE3=Banjo Tune
TTITLE4=Fod
TTITLE5=Guitar Blues
TTITLE6=Train Time
TTITLE7=Shady Grove
TTITLE8=I Love My Love
TTITLE9=Bones
TTITLE10=Long John
TTITLE11=Miss Otis Regrets
TTITLE12=Children, Go
EXTD=
EXTT0=
EXTT1=
EXTT2=
EXTT3=
EXTT4=
EXTT5=
EXTT6=
EXTT7=
EXTT8=
EXTT9=
EXTT10=
EXTT11=
EXTT12=
PLAYORDER=
